<svg width="1596" height="171" viewBox="0 0 1596 171" fill="none" xmlns="http://www.w3.org/2000/svg">
<path d="M39.9162 171H1.78125V66.7967H163.308V104.811H39.9162V171ZM194.278 39.228H1.78125V1.21448H194.278V39.228ZM250.954 171H212.941V1.21448H250.954V171ZM475.837 171H429.807L321.475 49.3082V171H283.461V1.21448H329.369L437.823 122.906V1.21448H475.837V171ZM616.072 171H508.223V1.82172H616.072C627.731 1.82172 638.701 4.04828 648.981 8.50138C669.791 17.6506 684.808 32.6697 694.042 53.5587C698.494 63.8415 700.722 74.7721 700.722 86.3503C700.722 98.0094 698.494 108.98 694.042 119.263C684.808 140.071 669.791 155.09 648.981 164.32C638.701 168.773 627.731 171 616.072 171ZM616.072 132.987C624.653 132.987 632.467 130.881 639.509 126.671C646.551 122.461 652.178 116.834 656.391 109.79C660.599 102.665 662.708 94.8516 662.708 86.3503C662.708 77.8485 660.599 70.0758 656.391 63.0321C652.178 55.988 646.551 50.3608 639.509 46.1506C632.467 41.9403 624.653 39.8352 616.072 39.8352H546.236V132.987H616.072ZM880.303 171H846.419L829.78 137.723L813.141 171H779.257L694.364 1.21448H736.627L796.14 120.234L808.524 95.3371L761.525 1.21448H803.788L829.78 52.952L855.648 1.21448H898.035L850.911 95.3371L863.301 120.234L922.809 1.21448H965.197L880.303 171ZM1101.66 171H1019.81C1012.2 171 1005.03 169.543 998.308 166.628C984.706 160.636 974.871 150.799 968.798 137.116C965.963 130.477 964.549 123.352 964.549 115.741V57.0808C964.549 49.5511 965.963 42.4261 968.798 35.7059C974.871 22.0227 984.706 12.1853 998.308 6.19387C1005.03 3.27911 1012.2 1.82172 1019.81 1.82172H1101.66C1109.19 1.82172 1116.32 3.27911 1123.04 6.19387C1136.64 12.1853 1146.48 22.0227 1152.55 35.7059C1155.46 42.4261 1156.92 49.5511 1156.92 57.0808V115.741C1156.92 123.352 1155.46 130.477 1152.55 137.116C1146.48 150.799 1136.64 160.636 1123.04 166.628C1116.32 169.543 1109.19 171 1101.66 171ZM1101.66 132.987C1106.44 132.987 1110.49 131.327 1113.81 128.007C1117.13 124.607 1118.79 120.518 1118.79 115.741V57.0808C1118.79 52.3042 1117.13 48.2557 1113.81 44.9361C1110.49 41.5355 1106.44 39.8352 1101.66 39.8352H1019.81C1015.03 39.8352 1010.94 41.5355 1007.54 44.9361C1004.22 48.2557 1002.56 52.3042 1002.56 57.0808V115.741C1002.56 120.518 1004.22 124.607 1007.54 128.007C1010.94 131.327 1015.03 132.987 1019.81 132.987H1101.66ZM1376.46 171H1329.22L1296.06 126.307H1221.98V171H1183.96V88.2935H1313.91C1320.63 88.2935 1326.38 85.9047 1331.16 81.1276C1335.93 76.351 1338.32 70.6023 1338.32 63.882C1338.32 57.0808 1335.93 51.2919 1331.16 46.5149C1326.38 41.7379 1320.63 39.3494 1313.91 39.3494H1183.96V1.21448L1313.91 1.33592C1322.5 1.33592 1330.55 2.99573 1338.09 6.31533C1353.46 13.1165 1364.6 24.2088 1371.48 39.5923C1374.8 47.6889 1376.46 55.7854 1376.46 63.882C1376.46 71.8977 1374.8 79.9539 1371.48 88.0505C1364.84 103.029 1354.07 113.96 1339.18 120.842L1376.46 171ZM1592.11 171H1545.36L1479.53 80.8851L1437.75 115.255V171H1399.74V1.21448H1437.75V66.1894L1516.94 1.21448H1576.69L1508.92 56.8383L1592.11 171Z" fill="white"/>
</svg>
